<mxfile host="app.diagrams.net" modified="2021-10-20T17:08:58.819Z" agent="5.0 (Windows NT 10.0; Win64; x64) AppleWebKit/537.36 (KHTML, like Gecko) Chrome/94.0.4606.81 Safari/537.36" etag="7zYicBdi52KgqqFwAuFD" version="15.5.6" type="github">
  <diagram id="-e_0deL4uX5OAMR9ncMf" name="Page-1">
    <mxGraphModel dx="868" dy="496" grid="1" gridSize="10" guides="1" tooltips="1" connect="1" arrows="1" fold="1" page="1" pageScale="1" pageWidth="1169" pageHeight="827" math="0" shadow="0">
      <root>
        <mxCell id="0" />
        <mxCell id="1" parent="0" />
        <mxCell id="7VVgMTH__XTHksGeHq0i-21" style="edgeStyle=orthogonalEdgeStyle;rounded=0;orthogonalLoop=1;jettySize=auto;html=1;exitX=0;exitY=0.5;exitDx=0;exitDy=0;entryX=1;entryY=0.5;entryDx=0;entryDy=0;endArrow=none;endFill=0;" edge="1" parent="1" source="7VVgMTH__XTHksGeHq0i-17" target="7VVgMTH__XTHksGeHq0i-20">
          <mxGeometry relative="1" as="geometry" />
        </mxCell>
        <mxCell id="7VVgMTH__XTHksGeHq0i-22" style="edgeStyle=orthogonalEdgeStyle;rounded=0;orthogonalLoop=1;jettySize=auto;html=1;exitX=0.5;exitY=1;exitDx=0;exitDy=0;entryX=0.5;entryY=0;entryDx=0;entryDy=0;endArrow=none;endFill=0;" edge="1" parent="1" source="7VVgMTH__XTHksGeHq0i-17" target="7VVgMTH__XTHksGeHq0i-2">
          <mxGeometry relative="1" as="geometry">
            <Array as="points">
              <mxPoint x="270" y="190" />
              <mxPoint x="270" y="190" />
            </Array>
          </mxGeometry>
        </mxCell>
        <mxCell id="7VVgMTH__XTHksGeHq0i-28" value="(1,N)" style="edgeLabel;html=1;align=center;verticalAlign=middle;resizable=0;points=[];" vertex="1" connectable="0" parent="7VVgMTH__XTHksGeHq0i-22">
          <mxGeometry x="0.7048" y="-1" relative="1" as="geometry">
            <mxPoint y="-1" as="offset" />
          </mxGeometry>
        </mxCell>
        <mxCell id="7VVgMTH__XTHksGeHq0i-29" value="(1,1)" style="edgeLabel;html=1;align=center;verticalAlign=middle;resizable=0;points=[];" vertex="1" connectable="0" parent="7VVgMTH__XTHksGeHq0i-22">
          <mxGeometry x="-0.6762" relative="1" as="geometry">
            <mxPoint as="offset" />
          </mxGeometry>
        </mxCell>
        <mxCell id="7VVgMTH__XTHksGeHq0i-17" value="Aulas" style="whiteSpace=wrap;html=1;align=center;" vertex="1" parent="1">
          <mxGeometry x="220" y="110" width="100" height="40" as="geometry" />
        </mxCell>
        <mxCell id="7VVgMTH__XTHksGeHq0i-23" style="edgeStyle=orthogonalEdgeStyle;rounded=0;orthogonalLoop=1;jettySize=auto;html=1;exitX=0.5;exitY=1;exitDx=0;exitDy=0;entryX=0.5;entryY=0;entryDx=0;entryDy=0;endArrow=none;endFill=0;" edge="1" parent="1" source="7VVgMTH__XTHksGeHq0i-2" target="7VVgMTH__XTHksGeHq0i-16">
          <mxGeometry relative="1" as="geometry" />
        </mxCell>
        <mxCell id="7VVgMTH__XTHksGeHq0i-26" value="(1,N)" style="edgeLabel;html=1;align=center;verticalAlign=middle;resizable=0;points=[];" vertex="1" connectable="0" parent="7VVgMTH__XTHksGeHq0i-23">
          <mxGeometry x="-0.6544" y="-1" relative="1" as="geometry">
            <mxPoint as="offset" />
          </mxGeometry>
        </mxCell>
        <mxCell id="7VVgMTH__XTHksGeHq0i-27" value="(1,1)" style="edgeLabel;html=1;align=center;verticalAlign=middle;resizable=0;points=[];" vertex="1" connectable="0" parent="7VVgMTH__XTHksGeHq0i-23">
          <mxGeometry x="0.7197" y="-2" relative="1" as="geometry">
            <mxPoint as="offset" />
          </mxGeometry>
        </mxCell>
        <mxCell id="7VVgMTH__XTHksGeHq0i-2" value="Ter_Aula" style="shape=associativeEntity;whiteSpace=wrap;html=1;align=center;" vertex="1" parent="1">
          <mxGeometry x="200" y="210" width="140" height="60" as="geometry" />
        </mxCell>
        <mxCell id="7VVgMTH__XTHksGeHq0i-10" style="edgeStyle=orthogonalEdgeStyle;rounded=0;orthogonalLoop=1;jettySize=auto;html=1;exitX=0;exitY=0.25;exitDx=0;exitDy=0;entryX=0.5;entryY=0;entryDx=0;entryDy=0;endArrow=none;endFill=0;" edge="1" parent="1" source="7VVgMTH__XTHksGeHq0i-3" target="7VVgMTH__XTHksGeHq0i-4">
          <mxGeometry relative="1" as="geometry">
            <Array as="points">
              <mxPoint x="500" y="215" />
            </Array>
          </mxGeometry>
        </mxCell>
        <mxCell id="7VVgMTH__XTHksGeHq0i-11" style="edgeStyle=orthogonalEdgeStyle;rounded=0;orthogonalLoop=1;jettySize=auto;html=1;exitX=0;exitY=0.75;exitDx=0;exitDy=0;entryX=0.5;entryY=0;entryDx=0;entryDy=0;endArrow=none;endFill=0;" edge="1" parent="1" source="7VVgMTH__XTHksGeHq0i-3" target="7VVgMTH__XTHksGeHq0i-6">
          <mxGeometry relative="1" as="geometry">
            <Array as="points">
              <mxPoint x="620" y="215" />
            </Array>
          </mxGeometry>
        </mxCell>
        <mxCell id="7VVgMTH__XTHksGeHq0i-3" value="" style="triangle;whiteSpace=wrap;html=1;rotation=-90;" vertex="1" parent="1">
          <mxGeometry x="545" y="180" width="30" height="40" as="geometry" />
        </mxCell>
        <mxCell id="7VVgMTH__XTHksGeHq0i-31" style="edgeStyle=orthogonalEdgeStyle;rounded=0;orthogonalLoop=1;jettySize=auto;html=1;exitX=0.5;exitY=1;exitDx=0;exitDy=0;entryX=0.5;entryY=0;entryDx=0;entryDy=0;endArrow=none;endFill=0;" edge="1" parent="1" source="7VVgMTH__XTHksGeHq0i-4" target="7VVgMTH__XTHksGeHq0i-30">
          <mxGeometry relative="1" as="geometry" />
        </mxCell>
        <mxCell id="7VVgMTH__XTHksGeHq0i-4" value="Professores integrais" style="whiteSpace=wrap;html=1;align=center;" vertex="1" parent="1">
          <mxGeometry x="450" y="240" width="100" height="40" as="geometry" />
        </mxCell>
        <mxCell id="7VVgMTH__XTHksGeHq0i-6" value="Professores parciais" style="whiteSpace=wrap;html=1;align=center;" vertex="1" parent="1">
          <mxGeometry x="570" y="240" width="100" height="40" as="geometry" />
        </mxCell>
        <mxCell id="7VVgMTH__XTHksGeHq0i-9" style="edgeStyle=orthogonalEdgeStyle;rounded=0;orthogonalLoop=1;jettySize=auto;html=1;exitX=0.5;exitY=1;exitDx=0;exitDy=0;entryX=1;entryY=0.5;entryDx=0;entryDy=0;endArrow=none;endFill=0;" edge="1" parent="1" source="7VVgMTH__XTHksGeHq0i-7" target="7VVgMTH__XTHksGeHq0i-3">
          <mxGeometry relative="1" as="geometry" />
        </mxCell>
        <mxCell id="7VVgMTH__XTHksGeHq0i-14" style="edgeStyle=orthogonalEdgeStyle;rounded=0;orthogonalLoop=1;jettySize=auto;html=1;exitX=1;exitY=0.5;exitDx=0;exitDy=0;entryX=0;entryY=0.5;entryDx=0;entryDy=0;endArrow=none;endFill=0;" edge="1" parent="1" source="7VVgMTH__XTHksGeHq0i-7" target="7VVgMTH__XTHksGeHq0i-13">
          <mxGeometry relative="1" as="geometry" />
        </mxCell>
        <mxCell id="7VVgMTH__XTHksGeHq0i-15" style="edgeStyle=orthogonalEdgeStyle;rounded=0;orthogonalLoop=1;jettySize=auto;html=1;exitX=0;exitY=0.5;exitDx=0;exitDy=0;entryX=1;entryY=0.5;entryDx=0;entryDy=0;endArrow=none;endFill=0;" edge="1" parent="1" source="7VVgMTH__XTHksGeHq0i-7" target="7VVgMTH__XTHksGeHq0i-12">
          <mxGeometry relative="1" as="geometry" />
        </mxCell>
        <mxCell id="7VVgMTH__XTHksGeHq0i-18" style="edgeStyle=orthogonalEdgeStyle;rounded=0;orthogonalLoop=1;jettySize=auto;html=1;exitX=0.5;exitY=0;exitDx=0;exitDy=0;entryX=0.5;entryY=0;entryDx=0;entryDy=0;endArrow=none;endFill=0;" edge="1" parent="1" source="7VVgMTH__XTHksGeHq0i-7" target="7VVgMTH__XTHksGeHq0i-17">
          <mxGeometry relative="1" as="geometry" />
        </mxCell>
        <mxCell id="7VVgMTH__XTHksGeHq0i-24" value="(1,N)" style="edgeLabel;html=1;align=center;verticalAlign=middle;resizable=0;points=[];" vertex="1" connectable="0" parent="7VVgMTH__XTHksGeHq0i-18">
          <mxGeometry x="0.7664" y="2" relative="1" as="geometry">
            <mxPoint as="offset" />
          </mxGeometry>
        </mxCell>
        <mxCell id="7VVgMTH__XTHksGeHq0i-25" value="(1,1)" style="edgeLabel;html=1;align=center;verticalAlign=middle;resizable=0;points=[];" vertex="1" connectable="0" parent="7VVgMTH__XTHksGeHq0i-18">
          <mxGeometry x="-0.8938" y="-1" relative="1" as="geometry">
            <mxPoint as="offset" />
          </mxGeometry>
        </mxCell>
        <mxCell id="7VVgMTH__XTHksGeHq0i-7" value="Professor" style="whiteSpace=wrap;html=1;align=center;" vertex="1" parent="1">
          <mxGeometry x="510" y="110" width="100" height="40" as="geometry" />
        </mxCell>
        <mxCell id="7VVgMTH__XTHksGeHq0i-12" value="&lt;font style=&quot;font-size: 11px&quot;&gt;N_Aulas_Em_Grupo&lt;/font&gt;" style="ellipse;whiteSpace=wrap;html=1;align=center;" vertex="1" parent="1">
          <mxGeometry x="360" y="105" width="110" height="50" as="geometry" />
        </mxCell>
        <mxCell id="7VVgMTH__XTHksGeHq0i-13" value="&lt;font style=&quot;font-size: 11px&quot;&gt;N_Aulas_Individuais&lt;/font&gt;" style="ellipse;whiteSpace=wrap;html=1;align=center;" vertex="1" parent="1">
          <mxGeometry x="650" y="105" width="110" height="50" as="geometry" />
        </mxCell>
        <mxCell id="7VVgMTH__XTHksGeHq0i-16" value="Estudantes" style="whiteSpace=wrap;html=1;align=center;" vertex="1" parent="1">
          <mxGeometry x="220" y="340" width="100" height="40" as="geometry" />
        </mxCell>
        <mxCell id="7VVgMTH__XTHksGeHq0i-20" value="Modalidade" style="ellipse;whiteSpace=wrap;html=1;align=center;" vertex="1" parent="1">
          <mxGeometry x="60" y="105" width="110" height="50" as="geometry" />
        </mxCell>
        <mxCell id="7VVgMTH__XTHksGeHq0i-30" value="SalÃ¡rio fixo" style="ellipse;whiteSpace=wrap;html=1;align=center;" vertex="1" parent="1">
          <mxGeometry x="456" y="310" width="88" height="40" as="geometry" />
        </mxCell>
        <mxCell id="7VVgMTH__XTHksGeHq0i-33" style="edgeStyle=orthogonalEdgeStyle;rounded=0;orthogonalLoop=1;jettySize=auto;html=1;exitX=0.5;exitY=0;exitDx=0;exitDy=0;entryX=0.5;entryY=1;entryDx=0;entryDy=0;endArrow=none;endFill=0;" edge="1" parent="1" source="7VVgMTH__XTHksGeHq0i-32" target="7VVgMTH__XTHksGeHq0i-6">
          <mxGeometry relative="1" as="geometry" />
        </mxCell>
        <mxCell id="7VVgMTH__XTHksGeHq0i-32" value="SalÃ¡rio por aula" style="ellipse;whiteSpace=wrap;html=1;align=center;" vertex="1" parent="1">
          <mxGeometry x="576" y="310" width="88" height="40" as="geometry" />
        </mxCell>
      </root>
    </mxGraphModel>
  </diagram>
</mxfile>
